<svg width="1638" height="294" viewBox="0 0 1638 294" fill="none" xmlns="http://www.w3.org/2000/svg">
<path d="M390.815 194.978C358.335 194.978 324.008 173.717 307.18 158.297C288.758 141.406 238.19 86.4888 237.939 86.2367C204.787 49.1352 160.179 8 115.654 8C62.0656 8 15.3172 45.1435 3.18945 94.3881C4.11267 91.1528 21.1502 46.0679 85.1041 46.0679C117.585 46.0679 151.912 67.3288 168.739 82.7493C187.162 99.6403 237.729 154.557 237.981 154.809C271.133 191.869 315.741 233.004 360.265 233.004C413.854 233.004 460.602 195.861 472.772 146.616C471.849 149.851 454.811 194.936 390.857 194.936L390.815 194.978Z" fill="#00A2DE"/>
<path d="M237.939 154.81C237.939 154.81 223.251 138.843 206.927 121.616C198.114 132.12 185.357 146.406 170.753 159.222C143.518 183.13 125.809 188.172 115.654 188.172C77.4244 188.172 46.2448 157.835 46.2448 120.523C46.2448 83.2119 77.3825 53.0853 115.654 52.8752C117.039 52.8752 118.717 53.0013 120.774 53.3794C109.275 48.9676 97.0638 46.0684 85.1039 46.0684C21.1501 46.0684 4.11252 91.1112 3.1893 94.3886C1.13304 102.792 0 111.532 0 120.481C0 182.499 51.1127 233.005 114.857 233.005C141.42 233.005 171.173 219.349 201.849 192.458C216.327 179.726 228.916 166.155 238.358 155.188C238.232 155.062 238.106 154.936 237.98 154.768L237.939 154.81Z" fill="url(#paint0_linear_1185_49)"/>
<path d="M237.938 86.1947C237.938 86.1947 252.626 102.161 268.95 119.389C277.762 108.884 290.52 94.5982 305.123 81.7829C332.358 57.8749 350.067 52.8328 360.223 52.8328C398.452 52.8328 429.632 83.1694 429.632 120.481C429.632 157.583 398.494 187.919 360.223 188.129C358.838 188.129 357.159 188.003 355.103 187.625C366.601 192.037 378.813 194.936 390.773 194.936C454.727 194.936 471.764 149.851 472.687 146.616C474.744 138.212 475.877 129.473 475.877 120.523C475.877 58.5051 423.925 8 360.223 8C333.659 8 304.704 21.6557 274.07 48.547C259.592 61.2783 247.003 74.85 237.561 85.8166C237.686 85.9426 237.812 86.0687 237.938 86.2367V86.1947Z" fill="url(#paint1_linear_1185_49)"/>
<path d="M901.697 107.88H931.137C950.337 107.88 963.457 96.6801 963.457 79.0801C963.457 60.8401 950.337 49.9601 931.137 49.9601H901.697V107.88ZM936.257 151.4H901.377V233H850.817V6.12012H936.257C982.337 6.12012 1014.02 36.5201 1014.02 78.7601C1014.02 121.64 982.337 151.4 936.257 151.4Z" fill="white"/>
<path d="M717.869 237.8C652.589 237.8 600.109 190.76 600.109 120.04C600.109 49.3203 653.869 1.32031 717.229 1.32031C785.389 1.32031 815.469 45.1603 822.829 77.8003L775.149 92.8403C771.629 77.1603 757.229 50.6003 717.229 50.6003C686.829 50.6003 652.589 72.3603 652.589 120.04C652.589 162.6 683.949 187.24 717.869 187.24C757.229 187.24 772.909 161 777.389 144.68L825.709 158.44C818.349 189.8 788.269 237.8 717.869 237.8Z" fill="white"/>
<path d="M573.717 233H522.517V6.12012H573.717V233Z" fill="white"/>
<path fill-rule="evenodd" clip-rule="evenodd" d="M850.317 5.62012H936.257C959.409 5.62012 978.976 13.2582 992.76 26.2361C1006.55 39.2156 1014.52 57.5099 1014.52 78.7601C1014.52 100.329 1006.55 118.624 992.759 131.525C978.974 144.424 959.406 151.9 936.257 151.9H901.877V233.5H850.317V5.62012ZM851.317 6.62012V232.5H900.877V150.9H936.257C959.189 150.9 978.501 143.496 992.076 130.795C1005.65 118.096 1013.52 100.071 1013.52 78.7601C1013.52 57.7704 1005.65 39.7446 992.075 26.9642C978.499 14.182 959.186 6.62012 936.257 6.62012H851.317ZM901.197 49.4601H931.137C940.829 49.4601 949.036 52.2065 954.828 57.3048C960.627 62.4097 963.957 69.8323 963.957 79.0801C963.957 88.0126 960.624 95.3534 954.828 100.455C949.038 105.552 940.832 108.38 931.137 108.38H901.197V49.4601ZM902.197 50.4601V107.38H931.137C940.642 107.38 948.596 104.608 954.167 99.7048C959.731 94.8069 962.957 87.7476 962.957 79.0801C962.957 70.088 959.728 62.9505 954.167 58.0554C948.599 53.1537 940.646 50.4601 931.137 50.4601H902.197Z" fill="white"/>
<path fill-rule="evenodd" clip-rule="evenodd" d="M717.229 1.82031C654.134 1.82031 600.609 49.608 600.609 120.04C600.609 190.469 652.85 237.3 717.869 237.3C787.629 237.3 817.603 189.997 825.112 158.79L777.736 145.299C775.412 153.462 770.345 163.942 761.047 172.449C751.553 181.136 737.671 187.74 717.869 187.74C683.698 187.74 652.089 162.9 652.089 120.04C652.089 96.0711 660.7 78.5743 673.17 67.0728C685.631 55.5798 701.916 50.1003 717.229 50.1003C737.351 50.1003 751.076 56.7851 760.214 65.478C769.138 73.9681 773.658 84.3453 775.515 92.2007L822.239 77.4622C814.747 45.0545 784.802 1.82031 717.229 1.82031ZM599.609 120.04C599.609 49.0326 653.605 0.820312 717.229 0.820312C785.665 0.820312 815.916 44.8661 823.317 77.6903L823.418 78.1388L774.781 93.4809L774.661 92.9498C772.918 85.184 768.478 74.7201 759.525 66.2026C750.582 57.6955 737.108 51.1003 717.229 51.1003C702.143 51.1003 686.108 56.5008 673.848 67.8078C661.598 79.1064 653.089 96.3295 653.089 120.04C653.089 162.3 684.201 186.74 717.869 186.74C737.427 186.74 751.066 180.225 760.372 171.711C769.688 163.188 774.686 152.638 776.907 144.548L777.041 144.061L826.305 158.09L826.196 158.555C818.798 190.075 788.563 238.3 717.869 238.3C652.329 238.3 599.609 191.052 599.609 120.04Z" fill="white"/>
<path fill-rule="evenodd" clip-rule="evenodd" d="M522.017 5.62012H574.217V233.5H522.017V5.62012ZM523.017 6.62012V232.5H573.217V6.62012H523.017Z" fill="white"/>
<path d="M1543.41 293.3H1512.51L1548.51 217.1L1486.41 88.7002H1518.81L1563.81 188.3L1607.01 88.7002H1637.31L1543.41 293.3Z" fill="white"/>
<path d="M1457.58 233H1429.38V15.7998H1457.58V233Z" fill="white"/>
<path d="M1262.75 194.3C1262.75 168.5 1281.65 154.1 1306.55 150.5L1345.55 144.8C1354.25 143.6 1356.65 139.1 1356.65 134C1356.65 119.9 1347.35 108.2 1325.45 108.2C1305.65 108.2 1294.55 120.5 1292.75 137.3L1265.75 131C1268.75 103.4 1293.65 84.2002 1324.85 84.2002C1368.05 84.2002 1384.85 108.8 1384.85 137V209.3C1384.85 221.9 1386.05 229.4 1386.65 233H1359.05C1358.45 229.4 1357.55 224 1357.55 213.5C1351.25 223.7 1336.85 237.5 1311.05 237.5C1281.65 237.5 1262.75 217.1 1262.75 194.3ZM1314.95 213.8C1338.05 213.8 1356.65 202.7 1356.65 171.2V164.6L1312.55 171.2C1300.55 173 1291.55 179.9 1291.55 192.8C1291.55 203.6 1300.55 213.8 1314.95 213.8Z" fill="white"/>
<path d="M1207.64 43.0996V88.6996H1238.84V114.2H1207.64V189.2C1207.64 202.4 1213.04 209 1227.74 209C1231.34 209 1236.44 208.4 1238.84 207.8V231.8C1236.44 232.7 1229.24 234.5 1219.64 234.5C1195.04 234.5 1179.44 219.5 1179.44 193.4V114.2H1151.84V88.6996H1159.64C1175.24 88.6996 1181.84 79.0996 1181.84 66.4996V43.0996H1207.64Z" fill="white"/>
<path d="M1119.38 233H1089.38V20.2998H1119.38V233Z" fill="white"/>
<defs>
<linearGradient id="paint0_linear_1185_49" x1="175.621" y1="218.298" x2="18.889" y2="56.2246" gradientUnits="userSpaceOnUse">
<stop offset="0.22" stop-color="#FF0079"/>
<stop offset="0.89" stop-color="#612083"/>
</linearGradient>
<linearGradient id="paint1_linear_1185_49" x1="300.172" y1="22.8322" x2="456.904" y2="184.906" gradientUnits="userSpaceOnUse">
<stop offset="0.21" stop-color="#FF3100"/>
<stop offset="0.68" stop-color="#FF9800"/>
</linearGradient>
</defs>
</svg>
