<svg width="300" height="113" viewBox="0 0 300 113" fill="none" xmlns="http://www.w3.org/2000/svg">
<path d="M27.8935 61.0464H18.2215L0 1.11305H9.06755L19.9486 38.0149V46.4911C19.9486 47.9467 20.6395 48.6316 22.1076 48.6316H24.0074C25.4755 48.6316 26.1664 47.9467 26.1664 46.4911V38.1861L37.5656 1.11305H46.8922L58.2051 37.9292V46.4911C58.2051 47.9467 58.8959 48.6316 60.364 48.6316H62.2639C63.7319 48.6316 64.4228 47.9467 64.4228 46.4911V38.2717L75.3902 1.11305H84.4578L66.2363 61.0464H56.5643L45.3378 25.172V15.6683C45.3378 14.2128 44.6469 13.5278 43.1788 13.5278H41.279C39.8109 13.5278 39.12 14.2128 39.12 15.6683V25.172L27.8935 61.0464Z" fill="white"/>
<path d="M94.2304 25.6857C92.7623 25.6857 92.0714 26.3707 92.0714 27.8262V34.2476C92.0714 35.7031 92.7623 36.3881 94.2304 36.3881H95.9575C97.771 47.1761 105.37 54.0256 116.252 54.0256C125.924 54.0256 133.264 48.6316 134.646 40.4978H143.282C141.036 53.5975 130.673 62.1594 116.252 62.1594C98.8073 62.1594 86.89 49.659 86.89 30.9941C86.89 12.4148 98.6346 0 116.252 0C130.846 0 141.554 8.5619 143.541 21.6616H134.905C133.005 13.4422 125.751 8.13381 116.252 8.13381C105.457 8.13381 97.8574 14.9833 95.9575 25.6857H94.2304Z" fill="white"/>
<path d="M179.102 7.10638C179.102 5.22276 178.152 4.28095 176.253 4.28095H170.639C168.739 4.28095 167.876 5.22276 167.876 7.10638V8.90438C163.126 10.2743 160.19 13.3566 160.19 17.3807C160.19 23.5452 167.185 24.9151 175.216 26.4563C185.752 28.5111 197.928 30.9085 197.928 44.7788C197.928 55.053 188.861 62.1594 175.907 62.1594C158.981 62.1594 150.173 54.5393 149.654 39.556H158.29C158.463 47.1761 161.917 51.7139 168.999 53.3407V55.053C168.999 56.9367 169.862 57.8785 171.762 57.8785H177.375C179.275 57.8785 180.225 56.9367 180.225 55.053V53.5975C185.838 52.4845 189.293 49.0597 189.293 44.4363C189.293 37.5011 181.779 36.0456 173.489 34.4189C163.126 32.364 151.554 30.0523 151.554 16.8669C151.554 6.93514 160.622 0 173.662 0C186.961 0 194.992 7.192 195.856 19.8636H187.22C186.875 14.1271 184.111 10.3599 179.102 8.90438V7.10638Z" fill="white"/>
<path d="M205.401 51.7995C207.474 33.2202 236.662 29.4529 236.662 16.5245C236.662 13.4422 235.108 10.8736 232.517 9.33248V6.93514C232.517 5.47962 231.826 4.79467 230.358 4.79467H223.622C222.154 4.79467 221.464 5.47962 221.464 6.93514V9.33248C218.7 10.8736 216.887 13.6134 216.282 17.295H207.733C208.596 6.33581 215.678 0 227.422 0C238.821 0 245.126 5.99334 245.126 15.5827C245.126 35.7888 216.887 38.9567 214.037 51.7995C213.691 53.3407 213 53.94 211.619 53.94H207.474C206.006 53.94 205.228 53.1694 205.401 51.7995ZM205.315 61.0464V57.8785C205.574 57.9641 205.919 57.9641 206.265 57.9641H213C214.469 57.9641 215.159 57.2791 215.159 55.8236V53.0838H246.162V61.0464H205.315Z" fill="white"/>
<path d="M264.78 27.3981C265.125 27.6549 265.471 27.7406 265.816 27.7406C266.334 27.7406 266.853 27.4837 267.198 26.8844L270.48 21.9185C272.207 21.1479 274.366 20.7198 276.956 20.7198C288.528 20.7198 296.473 29.0249 296.473 40.8403C296.473 53.3407 287.665 62.1594 275.143 62.1594C263.83 62.1594 255.022 54.7962 255.022 45.2925H263.485C263.485 48.546 266.248 51.6283 270.048 53.1694V55.4811C270.048 56.9367 270.739 57.6216 272.207 57.6216H278.943C280.411 57.6216 281.102 56.9367 281.102 55.4811V52.9982C285.333 51.0289 288.01 46.748 288.01 41.2684C288.01 33.8195 283.088 28.6824 276.007 28.6824C270.393 28.6824 265.73 31.8503 264.78 36.2169H256.49L259.167 1.11305H261.671C261.585 1.36991 261.585 1.62677 261.585 1.96924V8.21943C261.585 9.67495 262.276 10.3599 263.744 10.3599H266.853L266.075 19.5211L262.966 24.1446C262.362 25.0864 262.535 25.9426 263.485 26.5419L264.78 27.3981ZM293.105 9.07562H267.803C266.334 9.07562 265.644 8.39067 265.644 6.93514V3.25353C265.644 1.798 266.334 1.11305 267.803 1.11305H293.105V9.07562Z" fill="white"/>
<path d="M165.543 87.5883V71.606H167.846V87.5883H165.543Z" fill="white"/>
<path d="M172.181 78.1588C171.789 78.1588 171.605 78.3414 171.605 78.7296V80.4419C171.605 80.8301 171.789 81.0127 172.181 81.0127H172.641C173.125 83.8895 175.152 85.7161 178.053 85.7161C180.632 85.7161 182.59 84.2777 182.958 82.1087H185.261C184.662 85.6019 181.899 87.8851 178.053 87.8851C173.401 87.8851 170.223 84.5516 170.223 79.5743C170.223 74.6198 173.355 71.3092 178.053 71.3092C181.945 71.3092 184.801 73.5924 185.33 77.0857H183.027C182.521 74.8938 180.586 73.4783 178.053 73.4783C175.175 73.4783 173.148 75.3048 172.641 78.1588H172.181Z" fill="white"/>
<path d="M189.655 73.2043V72.1768C189.655 71.7887 189.839 71.606 190.231 71.606H193.501C197.439 71.606 199.672 73.4554 199.672 76.7432C199.672 79.9625 197.554 81.652 193.501 81.652H190.231C189.839 81.652 189.655 81.4694 189.655 81.0812V80.0538C189.655 79.6657 189.839 79.483 190.231 79.483H193.501C196.172 79.483 197.37 78.6382 197.37 76.7432C197.37 74.7568 196.08 73.7751 193.501 73.7751H190.231C189.839 73.7751 189.655 73.5924 189.655 73.2043ZM187.582 87.5883V71.606H188.526C188.503 71.6745 188.503 71.743 188.503 71.8344V73.5467C188.503 73.9349 188.688 74.1175 189.079 74.1175H189.885V79.1405H189.079C188.688 79.1405 188.503 79.3232 188.503 79.7113V81.4237C188.503 81.8118 188.688 81.9945 189.079 81.9945H189.885V87.5883H187.582Z" fill="white"/>
<path d="M207.98 87.5883V71.606H208.924C208.901 71.6745 208.901 71.743 208.901 71.8344V73.5467C208.901 73.9349 209.085 74.1175 209.477 74.1175H210.283V78.1588H209.477C209.085 78.1588 208.901 78.3414 208.901 78.7296V80.4419C208.901 80.8301 209.085 81.0127 209.477 81.0127H210.283V87.5883H207.98ZM210.052 73.2043V72.1768C210.052 71.7887 210.237 71.606 210.628 71.606H217.997V73.7751H210.628C210.237 73.7751 210.052 73.5924 210.052 73.2043ZM210.052 80.0995V79.072C210.052 78.6839 210.237 78.5012 210.628 78.5012H216.823V80.6702H210.628C210.237 80.6702 210.052 80.4876 210.052 80.0995Z" fill="white"/>
<path d="M228.189 71.3092C233.048 71.3092 236.295 74.597 236.295 79.5515C236.295 84.5517 233.048 87.8851 228.189 87.8851C223.284 87.8851 220.014 84.5517 220.014 79.5515C220.014 74.597 223.284 71.3092 228.189 71.3092ZM221.971 78.1588C221.58 78.1588 221.396 78.3414 221.396 78.7296V80.4419C221.396 80.8301 221.58 81.0127 221.971 81.0127H222.432C222.962 83.8895 225.149 85.7161 228.189 85.7161C231.229 85.7161 233.348 83.9124 233.877 81.0127H234.338C234.729 81.0127 234.914 80.8301 234.914 80.4419V78.7296C234.914 78.3414 234.729 78.1588 234.338 78.1588H233.877C233.348 75.282 231.229 73.4783 228.189 73.4783C225.149 73.4783 222.985 75.3048 222.455 78.1588H221.971Z" fill="white"/>
<path d="M249.27 81.0812V71.606H251.573V81.0812C251.573 85.6019 249.432 87.8851 245.148 87.8851C240.842 87.8851 238.677 85.6247 238.677 81.0812V71.606H240.98V81.0812C240.98 83.7069 241.786 85.1224 243.651 85.5562V85.99C243.651 86.4923 243.905 86.7435 244.411 86.7435H245.908C246.415 86.7435 246.645 86.4923 246.645 85.99V85.5562C248.488 85.1224 249.27 83.7069 249.27 81.0812Z" fill="white"/>
<path d="M264.934 79.3688H264.128C263.829 79.3688 263.668 79.5743 263.668 79.9396V80.2821C263.668 80.6702 263.875 80.8529 264.244 80.8529H265.05C266.201 80.8529 267.007 81.9717 267.007 83.5927V87.5883H264.704V83.8895C264.704 81.9945 263.507 81.1954 260.72 81.1954H257.45C257.059 81.1954 256.874 81.0127 256.874 80.6246V79.5972C256.874 79.209 257.059 79.0264 257.45 79.0264H260.72C263.438 79.0264 264.589 78.2273 264.589 76.3322C264.589 74.5513 263.576 73.7751 261.181 73.7751H257.45C257.059 73.7751 256.874 73.5924 256.874 73.2043V72.1768C256.874 71.7887 257.059 71.606 257.45 71.606H261.181C264.865 71.606 266.892 73.2043 266.892 76.0582C266.892 77.9304 266.017 79.3688 264.934 79.3688ZM254.802 87.5883V71.606H255.746C255.723 71.6745 255.723 71.743 255.723 71.8344V73.5467C255.723 73.9349 255.907 74.1175 256.299 74.1175H257.105V78.6839H256.299C255.907 78.6839 255.723 78.8665 255.723 79.2547V80.9671C255.723 81.3552 255.907 81.5379 256.299 81.5379H257.105V87.5883H254.802Z" fill="white"/>
<path d="M275.117 87.5883V74.1175C275.117 73.7294 275.301 73.5467 275.692 73.5467H276.844C277.235 73.5467 277.42 73.7294 277.42 74.1175V87.5883H275.117ZM269.198 73.7751V71.606H283.315V73.7751H277.765V73.1586C277.765 72.6563 277.535 72.4052 277.028 72.4052H275.531C275.025 72.4052 274.771 72.6563 274.771 73.1586V73.7751H269.198Z" fill="white"/>
<path d="M285.724 87.5883V71.606H288.027V77.9304H287.221C286.83 77.9304 286.645 78.1131 286.645 78.5012V80.2136C286.645 80.6018 286.83 80.7844 287.221 80.7844H288.027V87.5883H285.724ZM296.317 87.5883V80.7844H297.123C297.515 80.7844 297.699 80.6018 297.699 80.2136V78.5012C297.699 78.1131 297.515 77.9304 297.123 77.9304H296.317V71.606H298.62V87.5883H296.317ZM287.797 79.8711V78.8437C287.797 78.4556 287.981 78.2729 288.372 78.2729H295.972C296.363 78.2729 296.548 78.4556 296.548 78.8437V79.8711C296.548 80.2593 296.363 80.4419 295.972 80.4419H288.372C287.981 80.4419 287.797 80.2593 287.797 79.8711Z" fill="white"/>
<path d="M147.013 96.721H149.109L155.994 112.703H153.484L151.872 108.936L152.563 108.662C152.932 108.502 153.024 108.274 152.863 107.909L152.195 106.333C152.08 106.082 151.941 105.968 151.734 105.968C151.642 105.968 151.55 105.991 151.435 106.036L150.744 106.31L148.879 101.927V100.443C148.879 100.054 148.694 99.8717 148.303 99.8717H147.796C147.405 99.8717 147.221 100.054 147.221 100.443V101.995L145.378 106.31L144.687 106.036C144.572 105.991 144.48 105.968 144.388 105.968C144.181 105.968 144.043 106.082 143.927 106.333L143.26 107.909C143.098 108.274 143.191 108.502 143.559 108.662L144.25 108.936L142.638 112.703H140.128L147.013 96.721ZM144.388 108.205L144.964 106.858C145.033 106.721 145.125 106.63 145.286 106.63H150.836C150.997 106.63 151.089 106.698 151.158 106.835L151.734 108.205C151.895 108.548 151.78 108.73 151.389 108.73H144.733C144.342 108.73 144.227 108.548 144.388 108.205Z" fill="white"/>
<path d="M160.447 96.721L169.474 108.959C169.613 109.141 169.751 109.233 169.912 109.233C170.027 109.233 170.142 109.187 170.28 109.096L170.488 108.936C170.81 108.708 170.856 108.456 170.626 108.137L169.359 106.424V96.721H171.662V112.703H169.359L160.332 100.283C160.194 100.1 160.056 100.009 159.894 100.009C159.779 100.009 159.664 100.054 159.526 100.146L159.296 100.306C158.996 100.534 158.95 100.785 159.181 101.105L160.447 102.84V112.703H158.144V96.721H160.447Z" fill="white"/>
<path d="M177.179 96.721L186.206 108.959C186.344 109.141 186.483 109.233 186.644 109.233C186.759 109.233 186.874 109.187 187.012 109.096L187.219 108.936C187.542 108.708 187.588 108.456 187.358 108.137L186.091 106.424V96.721H188.394V112.703H186.091L177.064 100.283C176.926 100.1 176.787 100.009 176.626 100.009C176.511 100.009 176.396 100.054 176.258 100.146L176.027 100.306C175.728 100.534 175.682 100.785 175.912 101.105L177.179 102.84V112.703H174.876V96.721H177.179Z" fill="white"/>
<path d="M191.608 112.703V96.721H193.911V112.703H191.608Z" fill="white"/>
<path d="M195.989 96.721H198.476L202.644 107.315V109.233C202.644 109.621 202.828 109.804 203.22 109.804H203.726C204.118 109.804 204.302 109.621 204.302 109.233V107.315L208.47 96.721H210.957L204.509 112.703H202.437L195.989 96.721Z" fill="white"/>
<path d="M213.04 112.703V96.721H214.053C213.984 96.8351 213.961 96.9721 213.961 97.1319V98.479C213.961 98.9585 214.214 99.2096 214.721 99.2096H215.343V103.091H214.721C214.214 103.091 213.961 103.319 213.961 103.822V105.169C213.961 105.648 214.214 105.899 214.721 105.899H215.343V110.192H214.721C214.214 110.192 213.961 110.42 213.961 110.922V112.269C213.961 112.452 214.007 112.589 214.053 112.703H213.04ZM215.112 112.132V111.105C215.112 110.717 215.297 110.534 215.688 110.534H223.426V112.703H215.688C215.297 112.703 215.112 112.521 215.112 112.132ZM215.112 98.3192V97.2918C215.112 96.9036 215.297 96.721 215.688 96.721H223.057V98.89H215.688C215.297 98.89 215.112 98.7073 215.112 98.3192ZM215.112 104.986V103.959C215.112 103.57 215.297 103.388 215.688 103.388H221.883V105.557H215.688C215.297 105.557 215.112 105.374 215.112 104.986Z" fill="white"/>
<path d="M236.553 104.484H235.747C235.448 104.484 235.287 104.689 235.287 105.055V105.397C235.287 105.785 235.494 105.968 235.863 105.968H236.669C237.82 105.968 238.626 107.087 238.626 108.708V112.703H236.323V109.004C236.323 107.109 235.126 106.31 232.339 106.31H229.069C228.678 106.31 228.493 106.128 228.493 105.74V104.712C228.493 104.324 228.678 104.141 229.069 104.141H232.339C235.057 104.141 236.208 103.342 236.208 101.447C236.208 99.6663 235.195 98.89 232.8 98.89H229.069C228.678 98.89 228.493 98.7073 228.493 98.3192V97.2918C228.493 96.9036 228.678 96.721 229.069 96.721H232.8C236.484 96.721 238.511 98.3192 238.511 101.173C238.511 103.045 237.636 104.484 236.553 104.484ZM226.421 112.703V96.721H227.365C227.342 96.7895 227.342 96.858 227.342 96.9493V98.6617C227.342 99.0498 227.526 99.2325 227.918 99.2325H228.724V103.799H227.918C227.526 103.799 227.342 103.981 227.342 104.37V106.082C227.342 106.47 227.526 106.653 227.918 106.653H228.724V112.703H226.421Z" fill="white"/>
<path d="M248.854 98.3192C248.854 97.8169 248.601 97.5657 248.094 97.5657H246.598C246.091 97.5657 245.861 97.8169 245.861 98.3192V98.7987C244.594 99.164 243.811 99.9859 243.811 101.059C243.811 102.703 245.676 103.068 247.818 103.479C250.628 104.027 253.875 104.666 253.875 108.365C253.875 111.105 251.457 113 248.002 113C243.489 113 241.14 110.968 241.002 106.972H243.304C243.35 109.004 244.272 110.215 246.16 110.648V111.105C246.16 111.607 246.39 111.858 246.897 111.858H248.394C248.9 111.858 249.154 111.607 249.154 111.105V110.717C250.651 110.42 251.572 109.507 251.572 108.274C251.572 106.424 249.568 106.036 247.357 105.603C244.594 105.055 241.508 104.438 241.508 100.922C241.508 98.2735 243.926 96.4241 247.404 96.4241C250.95 96.4241 253.092 98.342 253.322 101.721H251.019C250.927 100.191 250.19 99.1868 248.854 98.7987V98.3192Z" fill="white"/>
<path d="M261.954 96.721H264.05L270.936 112.703H268.425L266.813 108.936L267.504 108.662C267.873 108.502 267.965 108.274 267.804 107.909L267.136 106.333C267.021 106.082 266.883 105.968 266.675 105.968C266.583 105.968 266.491 105.991 266.376 106.036L265.685 106.31L263.82 101.927V100.443C263.82 100.054 263.636 99.8717 263.244 99.8717H262.737C262.346 99.8717 262.162 100.054 262.162 100.443V101.995L260.319 106.31L259.629 106.036C259.513 105.991 259.421 105.968 259.329 105.968C259.122 105.968 258.984 106.082 258.869 106.333L258.201 107.909C258.04 108.274 258.132 108.502 258.5 108.662L259.191 108.936L257.579 112.703H255.069L261.954 96.721ZM259.329 108.205L259.905 106.858C259.974 106.721 260.066 106.63 260.227 106.63H265.777C265.938 106.63 266.03 106.698 266.1 106.835L266.675 108.205C266.837 108.548 266.721 108.73 266.33 108.73H259.675C259.283 108.73 259.168 108.548 259.329 108.205Z" fill="white"/>
<path d="M283.218 104.484H282.412C282.113 104.484 281.951 104.689 281.951 105.055V105.397C281.951 105.785 282.159 105.968 282.527 105.968H283.333C284.485 105.968 285.291 107.087 285.291 108.708V112.703H282.988V109.004C282.988 107.109 281.79 106.31 279.004 106.31H275.734C275.342 106.31 275.158 106.128 275.158 105.74V104.712C275.158 104.324 275.342 104.141 275.734 104.141H279.004C281.721 104.141 282.873 103.342 282.873 101.447C282.873 99.6663 281.859 98.89 279.464 98.89H275.734C275.342 98.89 275.158 98.7073 275.158 98.3192V97.2918C275.158 96.9036 275.342 96.721 275.734 96.721H279.464C283.149 96.721 285.175 98.3192 285.175 101.173C285.175 103.045 284.3 104.484 283.218 104.484ZM273.085 112.703V96.721H274.03C274.007 96.7895 274.007 96.858 274.007 96.9493V98.6617C274.007 99.0498 274.191 99.2325 274.582 99.2325H275.388V103.799H274.582C274.191 103.799 274.007 103.981 274.007 104.37V106.082C274.007 106.47 274.191 106.653 274.582 106.653H275.388V112.703H273.085Z" fill="white"/>
<path d="M292.009 112.703V105.26L286.344 96.721H289.107L292.331 101.584V103.068C292.331 103.456 292.516 103.639 292.907 103.639H293.414C293.805 103.639 293.99 103.456 293.99 103.068V101.607L297.237 96.721H300L294.312 105.306V112.703H292.009Z" fill="white"/>
</svg>
